# Blender v2.79 (sub 0) OBJ File: 'bridgescene.blend'
# www.blender.org
o Cube_Cube.001
v -1.000000 0.000000 -1.000000
v 1.000000 0.000000 -1.000000
v -1.000000 -1.000000 -1.000000
v 1.000000 -1.000000 -1.000000
v 0.000000 0.000000 -1.000000
v -1.000000 -0.500000 -1.000000
v -0.500000 0.000000 -1.000000
v 1.000000 -0.500000 -1.000000
v 0.500000 0.000000 -1.000000
v -1.000000 -0.250000 -1.000000
v -0.750000 0.000000 -1.000000
v 1.000000 -0.750000 -1.000000
v 0.250000 0.000000 -1.000000
v -0.760000 -1.000000 -1.000000
v -1.000000 -0.750000 -1.000000
v -0.250000 0.000000 -1.000000
v 1.000000 -0.250000 -1.000000
v 0.750000 0.000000 -1.000000
v 0.760000 -1.000000 -1.000000
v -0.000000 -0.240000 -1.000000
v 0.658179 -0.620000 -1.000000
v 0.380000 -0.341821 -1.000000
v -0.658179 -0.620000 -1.000000
v -0.380000 -0.341821 -1.000000
v -0.196703 -0.265896 -1.000000
v -0.734104 -0.803298 -1.000000
v 0.537401 -0.462599 -1.000000
v 0.734104 -0.803297 -1.000000
v 0.196702 -0.265896 -1.000000
v -0.537401 -0.462599 -1.000000
v -1.000000 -0.250000 1.000000
v -1.000000 0.000000 1.000000
v -0.750000 0.000000 1.000000
v 1.000000 -0.750000 1.000000
v 1.000000 -1.000000 1.000000
v 0.250000 0.000000 1.000000
v 0.000000 0.000000 1.000000
v -0.760000 -1.000000 1.000000
v -1.000000 -1.000000 1.000000
v -1.000000 -0.750000 1.000000
v -1.000000 -0.500000 1.000000
v -0.250000 0.000000 1.000000
v -0.500000 0.000000 1.000000
v 1.000000 -0.250000 1.000000
v 1.000000 -0.500000 1.000000
v 0.750000 0.000000 1.000000
v 0.500000 0.000000 1.000000
v -0.658179 -0.620000 1.000000
v 1.000000 0.000000 1.000000
v 0.760000 -1.000000 1.000000
v -0.000000 -0.240000 1.000000
v 0.658179 -0.620000 1.000000
v 0.380000 -0.341821 1.000000
v -0.380000 -0.341821 1.000000
v -0.196703 -0.265896 1.000000
v -0.734104 -0.803298 1.000000
v 0.537401 -0.462599 1.000000
v 0.734104 -0.803297 1.000000
v 0.196702 -0.265896 1.000000
v -0.537401 -0.462599 1.000000
vt 0.054980 1.000000
vt 0.000000 0.937500
vt 0.101734 0.884350
vt 0.058475 0.700824
vt 0.000000 0.750000
vt 0.000000 0.687500
vt 0.101734 0.615650
vt 0.000000 0.625000
vt 0.000000 0.562500
vt 0.164939 1.000000
vt 0.136349 0.914545
vt 0.176660 0.933526
vt 0.075173 0.845000
vt 0.000000 0.812500
vt 0.058475 0.799176
vt 0.052780 0.750000
vt 0.219918 1.000000
vt 0.219918 0.940000
vt 0.109959 0.500000
vt 0.054980 0.500000
vt 0.000000 0.500000
vt 0.219918 0.500000
vt 0.176660 0.566474
vt 0.164939 0.500000
vt 0.136349 0.585455
vt 0.075173 0.655000
vt 0.109959 1.000000
vt 0.000000 0.875000
vt 0.439837 0.937500
vt 0.384857 1.000000
vt 0.338103 0.884350
vt 0.381361 0.700824
vt 0.439836 0.750000
vt 0.387056 0.750000
vt 0.338103 0.615650
vt 0.439836 0.625000
vt 0.364664 0.655000
vt 0.303487 0.914545
vt 0.274898 1.000000
vt 0.263177 0.933526
vt 0.439836 0.812500
vt 0.364664 0.845000
vt 0.381361 0.799176
vt 0.219918 1.000000
vt 0.219918 0.940000
vt 0.329877 0.500000
vt 0.303487 0.585455
vt 0.384857 0.500000
vt 0.439836 0.562500
vt 0.219918 0.500000
vt 0.263177 0.566474
vt 0.219918 0.560000
vt 0.274898 0.500000
vt 0.439836 0.687500
vt 0.329877 1.000000
vt 0.439836 0.875000
vt 0.914808 0.500000
vt 0.878027 1.000000
vt 0.878027 0.500000
vt 0.850958 0.000000
vt 0.798178 0.500000
vt 0.798178 0.000000
vt 0.604158 0.500000
vt 0.549384 1.000000
vt 0.549384 0.500000
vt 0.329877 0.000000
vt 0.274898 0.500000
vt 0.274898 0.000000
vt 0.713705 1.000000
vt 0.768479 0.500000
vt 0.768479 1.000000
vt 1.000000 0.500000
vt 0.956411 1.000000
vt 0.956411 0.500000
vt 0.109959 0.000000
vt 0.054980 0.500000
vt 0.054980 0.000000
vt 0.914808 1.000000
vt 0.601279 0.000000
vt 0.558021 0.500000
vt 0.558020 0.000000
vt 0.514762 0.000000
vt 0.474452 0.500000
vt 0.474452 0.000000
vt 0.494610 1.000000
vt 0.494610 0.500000
vt 0.641589 0.000000
vt 0.601279 0.500000
vt 0.514762 0.500000
vt 0.384857 0.000000
vt 0.329877 0.500000
vt 0.823253 0.500000
vt 0.823253 1.000000
vt 0.164939 0.000000
vt 0.109959 0.500000
vt 0.439836 0.500000
vt 0.439836 0.000000
vt 0.439837 1.000000
vt 0.439836 0.500000
vt 0.754589 0.500000
vt 0.798178 0.000000
vt 0.798178 0.500000
vt 0.658932 0.500000
vt 0.604158 1.000000
vt 0.676205 0.500000
vt 0.712986 0.000000
vt 0.712986 0.500000
vt 0.439836 0.000000
vt 0.384857 0.500000
vt 0.754589 0.000000
vt 0.219918 0.500000
vt 0.219918 0.000000
vt 0.878027 0.500000
vt 0.878027 1.000000
vt 0.676205 0.000000
vt 0.641589 0.500000
vt 0.658932 1.000000
vt 0.713705 0.500000
vt 0.164939 0.500000
vt 0.000000 0.500000
vt 0.000000 0.000000
vt 0.903739 0.000000
vt 0.850959 0.500000
vt 0.850958 0.000000
vt 0.000000 1.000000
vt 0.219918 0.560000
vt 0.439836 0.500000
vt 0.850959 0.500000
vt 1.000000 1.000000
vt 0.658932 1.000000
vt 0.676205 0.000000
vt 0.439836 0.500000
vt 0.676205 0.500000
vt 0.658932 0.500000
vt 0.903739 0.500000
vn 0.0000 0.0000 -1.0000
vn 0.0000 0.0000 1.0000
vn -0.7934 -0.6088 0.0000
vn -0.0000 -1.0000 0.0000
vn -1.0000 0.0000 0.0000
vn 0.0000 1.0000 0.0000
vn 1.0000 0.0000 0.0000
vn -0.9914 -0.1305 0.0000
vn -0.9239 -0.3827 0.0000
vn -0.1305 -0.9914 0.0000
vn 0.3827 -0.9239 0.0000
vn -0.3827 -0.9239 0.0000
vn 0.1305 -0.9914 0.0000
vn 0.6088 -0.7934 0.0000
vn 0.9914 -0.1305 0.0000
vn 0.7934 -0.6088 0.0000
vn 0.9239 -0.3827 0.0000
vn -0.6088 -0.7934 0.0000
s off
f 10/1/1 11/2/1 30/3/1
f 29/4/1 5/5/1 13/6/1
f 27/7/1 9/8/1 18/9/1
f 15/10/1 23/11/1 26/12/1
f 24/13/1 16/14/1 25/15/1
f 25/15/1 5/5/1 20/16/1
f 3/17/1 26/12/1 14/18/1
f 8/19/1 27/7/1 17/20/1
f 17/20/1 18/9/1 2/21/1
f 4/22/1 28/23/1 12/24/1
f 12/24/1 21/25/1 8/19/1
f 22/26/1 13/6/1 9/8/1
f 6/27/1 30/3/1 23/11/1
f 30/3/1 7/28/1 24/13/1
f 33/29/2 31/30/2 60/31/2
f 59/32/2 37/33/2 51/34/2
f 57/35/2 47/36/2 53/37/2
f 48/38/2 40/39/2 56/40/2
f 42/41/2 54/42/2 55/43/2
f 37/33/2 55/43/2 51/34/2
f 56/40/2 39/44/2 38/45/2
f 45/46/2 57/35/2 52/47/2
f 44/48/2 46/49/2 57/35/2
f 35/50/2 58/51/2 50/52/2
f 34/53/2 52/47/2 58/51/2
f 53/37/2 36/54/2 59/32/2
f 60/31/2 41/55/2 48/38/2
f 43/56/2 60/31/2 54/42/2
f 21/57/3 57/58/3 27/59/3
f 4/60/4 50/61/4 19/62/4
f 15/63/5 41/64/5 6/65/5
f 7/66/6 42/67/6 16/68/6
f 17/69/7 45/70/7 8/71/7
f 19/72/8 58/73/8 28/74/8
f 9/75/6 46/76/6 18/77/6
f 28/74/9 52/78/9 21/57/9
f 29/79/10 51/80/10 20/81/10
f 25/82/11 54/83/11 24/84/11
f 6/65/5 31/85/5 10/86/5
f 22/87/12 59/88/12 29/79/12
f 20/81/13 55/89/13 25/82/13
f 11/90/6 43/91/6 7/66/6
f 8/71/7 34/92/7 12/93/7
f 13/94/6 47/95/6 9/75/6
f 24/84/14 60/96/14 30/97/14
f 10/86/5 32/98/5 1/99/5
f 26/100/15 38/101/15 14/102/15
f 3/103/5 40/104/5 15/63/5
f 30/105/16 48/106/16 23/107/16
f 1/108/6 33/109/6 11/90/6
f 23/107/17 56/110/17 26/100/17
f 16/68/6 37/111/6 5/112/6
f 12/93/7 35/113/7 4/114/7
f 27/115/18 53/116/18 22/87/18
f 2/117/7 44/118/7 17/69/7
f 5/112/6 36/119/6 13/94/6
f 18/77/6 49/120/6 2/121/6
f 14/122/4 39/123/4 3/124/4
f 10/1/1 1/125/1 11/2/1
f 29/4/1 20/16/1 5/5/1
f 27/7/1 22/26/1 9/8/1
f 15/10/1 6/27/1 23/11/1
f 24/13/1 7/28/1 16/14/1
f 25/15/1 16/14/1 5/5/1
f 3/17/1 15/10/1 26/12/1
f 8/19/1 21/25/1 27/7/1
f 17/20/1 27/7/1 18/9/1
f 4/22/1 19/126/1 28/23/1
f 12/24/1 28/23/1 21/25/1
f 22/26/1 29/4/1 13/6/1
f 6/27/1 10/1/1 30/3/1
f 30/3/1 11/2/1 7/28/1
f 33/29/2 32/98/2 31/30/2
f 59/32/2 36/54/2 37/33/2
f 57/35/2 46/49/2 47/36/2
f 48/38/2 41/55/2 40/39/2
f 42/41/2 43/56/2 54/42/2
f 37/33/2 42/41/2 55/43/2
f 56/40/2 40/39/2 39/44/2
f 45/46/2 44/48/2 57/35/2
f 44/48/2 49/127/2 46/49/2
f 35/50/2 34/53/2 58/51/2
f 34/53/2 45/46/2 52/47/2
f 53/37/2 47/36/2 36/54/2
f 60/31/2 31/30/2 41/55/2
f 43/56/2 33/29/2 60/31/2
f 21/57/3 52/78/3 57/58/3
f 4/60/4 35/128/4 50/61/4
f 15/63/5 40/104/5 41/64/5
f 7/66/6 43/91/6 42/67/6
f 17/69/7 44/118/7 45/70/7
f 19/72/8 50/129/8 58/73/8
f 9/75/6 47/95/6 46/76/6
f 28/74/9 58/73/9 52/78/9
f 29/79/10 59/88/10 51/80/10
f 25/82/11 55/89/11 54/83/11
f 6/65/5 41/64/5 31/85/5
f 22/87/12 53/116/12 59/88/12
f 20/81/13 51/80/13 55/89/13
f 11/90/6 33/109/6 43/91/6
f 8/71/7 45/70/7 34/92/7
f 13/94/6 36/119/6 47/95/6
f 24/84/14 54/83/14 60/96/14
f 10/86/5 31/85/5 32/98/5
f 26/100/15 56/110/15 38/101/15
f 3/103/5 39/130/5 40/104/5
f 30/105/16 60/131/16 48/106/16
f 1/108/6 32/132/6 33/109/6
f 23/107/17 48/106/17 56/110/17
f 16/68/6 42/67/6 37/111/6
f 12/93/7 34/92/7 35/113/7
f 27/115/18 57/133/18 53/116/18
f 2/117/7 49/134/7 44/118/7
f 5/112/6 37/111/6 36/119/6
f 18/77/6 46/76/6 49/120/6
f 14/122/4 38/135/4 39/123/4
